<svg t="1673407354491" class="icon" viewBox="0 0 1024 1024" version="1.1" xmlns="http://www.w3.org/2000/svg" p-id="2975" width="32" height="32"><path d="M856.61696 257.45408A49.4592 49.4592 0 0 0 880.64 215.04a10.24 10.24 0 0 0-10.24-10.24H839.68a40.96 40.96 0 1 1 0-81.92h30.72a92.16 92.16 0 0 1 92.16 92.16 131.3792 131.3792 0 0 1-63.7952 112.66048l-26.68544 16.01536A387.97312 387.97312 0 0 1 901.12 491.52c0 121.69216-55.86944 230.35904-143.36 301.71136V880.64a61.44 61.44 0 0 1-61.44 61.44h-81.92a61.44 61.44 0 0 1-61.44-61.44c-13.45536-0.7168-27.136 0-40.96 0s-27.50464-0.7168-40.96-2.12992C471.04 914.55488 443.53536 942.08 409.6 942.08h-81.92a61.44 61.44 0 0 1-61.44-61.44v-87.40864a391.0656 391.0656 0 0 1-88.59648-102.56384c42.22976-15.62624 64.7168-41.0624 67.44064-76.26752H122.88a61.44 61.44 0 0 1-61.44-61.44v-122.88a61.44 61.44 0 0 1 61.44-61.44h19.80416a388.54656 388.54656 0 0 1 73.3184-129.72032L188.25216 164.92544a61.44 61.44 0 0 1 79.09376-79.09376l108.99456 40.87808A388.3008 388.3008 0 0 1 512 102.4c133.28384 0 250.92096 67.01056 321.06496 169.20576l23.552-14.1312z m-511.97952 122.38848a35.65568 35.65568 0 0 1 48.00512 0 35.65568 35.65568 0 0 0 47.98464 0 30.208 30.208 0 0 0 0-44.81024c-39.75168-37.10976-104.22272-37.10976-143.9744 0a30.208 30.208 0 0 0 0 44.81024 35.65568 35.65568 0 0 0 47.98464 0z" p-id="2976"></path></svg>
