<svg t="1673407447097" class="icon" viewBox="0 0 1024 1024" version="1.1" xmlns="http://www.w3.org/2000/svg" p-id="3464" width="32" height="32"><path d="M903.04 667.306667L810.666667 682.666667V469.333333l92.373333 15.36a42.666667 42.666667 0 0 1 35.626667 42.666667v98.56a42.666667 42.666667 0 0 1-35.626667 41.386667zM149.333333 501.333333c-11.733333 0-17.493333 7.68-18.986666 21.333334a13.44 13.44 0 0 1-13.013334 10.666666 10.666667 10.666667 0 0 1-10.666666-10.666666 12.8 12.8 0 0 1 2.133333-6.613334 21.333333 21.333333 0 0 0-3.626667-29.866666 21.333333 21.333333 0 0 0-29.866666 3.626666A53.333333 53.333333 0 1 0 170.666667 522.666667a21.333333 21.333333 0 0 0-21.333334-21.333334z" fill="#FAAAA5" p-id="3465"></path><path d="M719.573333 917.333333h-85.333333a42.666667 42.666667 0 0 1-42.666667-37.333333L576 746.666667h170.666667l15.36 122.666666A42.666667 42.666667 0 0 1 719.573333 917.333333zM344.533333 917.333333h-85.333333a42.666667 42.666667 0 0 1-42.666667-48l16.426667-122.666666h170.666667l-16.64 133.333333A42.666667 42.666667 0 0 1 344.533333 917.333333z" fill="#F88E86" p-id="3466"></path><path d="M128 554.666667a384 320 0 1 0 768 0 384 320 0 1 0-768 0Z" fill="#FAAAA5" p-id="3467"></path><path d="M768 533.333333m-21.333333 0a21.333333 21.333333 0 1 0 42.666666 0 21.333333 21.333333 0 1 0-42.666666 0Z" fill="#F88E86" p-id="3468"></path><path d="M781.653333 327.04A1506.346667 1506.346667 0 0 1 704 490.666667a1478.4 1478.4 0 0 0 138.026667-98.986667 331.946667 331.946667 0 0 0-60.373334-64.64z" fill="#F88E86" p-id="3469"></path><path d="M640 320s64-110.933333 170.666667-106.666667c0 87.253333-106.666667 277.333333-106.666667 277.333334s-46.933333-131.626667-64-170.666667z" fill="#FCCECB" p-id="3470"></path><path d="M613.12 298.666667a149.333333 149.333333 0 1 0-244.906667 0z" fill="#FFB300" p-id="3471"></path><path d="M426.666667 298.666667h128a106.666667 106.666667 0 1 0-128 0z" fill="#FFC107" p-id="3472"></path><path d="M640 320H341.333333l26.666667-21.333333h245.333333L640 320z" fill="#F88E86" p-id="3473"></path></svg>
